<svg xmlns="http://www.w3.org/2000/svg" width="1920" height="1080"><path d="M593,1369L-245,1396L943,1459Z" fill="#f4bb3f" stroke="#f4bb3f" stroke-width="1.51"/><path d="M201,-382L697,-358L1251,-385Z" fill="#e79c34" stroke="#e79c34" stroke-width="1.51"/><path d="M1574,1286L1223,1400L1792,1273Z" fill="#fac943" stroke="#fac943" stroke-width="1.51"/><path d="M1251,-385L1582,-357L2171,-339Z" fill="#eba838" stroke="#eba838" stroke-width="1.51"/><path d="M1223,1400L943,1459L2300,1341Z" fill="#fbca43" stroke="#fbca43" stroke-width="1.51"/><path d="M2117,1272L1792,1273L2300,1341Z" fill="#fcce45" stroke="#fcce45" stroke-width="1.51"/><path d="M1792,1273L1223,1400L2300,1341Z" fill="#fccb44" stroke="#fccb44" stroke-width="1.51"/><path d="M2200,996L2244,1233L2300,1341Z" fill="#fcce45" stroke="#fcce45" stroke-width="1.51"/><path d="M2032,217L2166,524L2308,237Z" fill="#f6be40" stroke="#f6be40" stroke-width="1.51"/><path d="M2072,725L2200,996L2324,630Z" fill="#fac843" stroke="#fac843" stroke-width="1.51"/><path d="M2200,996L2300,1341L2324,630Z" fill="#fbcb44" stroke="#fbcb44" stroke-width="1.51"/><path d="M2308,237L2166,524L2324,630Z" fill="#f8c341" stroke="#f8c341" stroke-width="1.51"/><path d="M2171,-339L1950,-172L2341,-118Z" fill="#efb03b" stroke="#efb03b" stroke-width="1.51"/><path d="M1950,-172L1942,-26L2341,-118Z" fill="#f0b23c" stroke="#f0b23c" stroke-width="1.51"/><path d="M2032,217L2308,237L2341,-118Z" fill="#f3b93e" stroke="#f3b93e" stroke-width="1.51"/><path d="M1942,-26L2032,217L2341,-118Z" fill="#f2b63d" stroke="#f2b63d" stroke-width="1.51"/><path d="M2308,237L2324,630L2341,-118Z" fill="#f6be40" stroke="#f6be40" stroke-width="1.51"/><path d="M2166,524L2072,725L2324,630Z" fill="#f9c642" stroke="#f9c642" stroke-width="1.51"/><path d="M2072,725L2008,845L2200,996Z" fill="#fac843" stroke="#fac843" stroke-width="1.51"/><path d="M2244,1233L2117,1272L2300,1341Z" fill="#fdcf45" stroke="#fdcf45" stroke-width="1.51"/><path d="M2032,217L2025,515L2166,524Z" fill="#f7c040" stroke="#f7c040" stroke-width="1.51"/><path d="M1964,1089L2117,1272L2200,996Z" fill="#fbcb44" stroke="#fbcb44" stroke-width="1.51"/><path d="M2200,996L2117,1272L2244,1233Z" fill="#fccd45" stroke="#fccd45" stroke-width="1.51"/><path d="M2025,515L2072,725L2166,524Z" fill="#f9c441" stroke="#f9c441" stroke-width="1.51"/><path d="M1722,-213L1950,-172L2171,-339Z" fill="#eead3a" stroke="#eead3a" stroke-width="1.51"/><path d="M1582,-357L1722,-213L2171,-339Z" fill="#edaa39" stroke="#edaa39" stroke-width="1.51"/><path d="M2008,845L1964,1089L2200,996Z" fill="#fbc943" stroke="#fbc943" stroke-width="1.51"/><path d="M1821,327L2025,515L2032,217Z" fill="#f5be3f" stroke="#f5be3f" stroke-width="1.51"/><path d="M1964,1089L1792,1273L2117,1272Z" fill="#fbcc44" stroke="#fbcc44" stroke-width="1.51"/><path d="M2025,515L1702,556L2072,725Z" fill="#f8c341" stroke="#f8c341" stroke-width="1.51"/><path d="M1702,556L2008,845L2072,725Z" fill="#f9c442" stroke="#f9c442" stroke-width="1.51"/><path d="M1743,917L1964,1089L2008,845Z" fill="#fac843" stroke="#fac843" stroke-width="1.51"/><path d="M1702,556L1743,917L2008,845Z" fill="#f9c441" stroke="#f9c441" stroke-width="1.51"/><path d="M1942,-26L1764,297L2032,217Z" fill="#f3b83d" stroke="#f3b83d" stroke-width="1.51"/><path d="M1764,297L1821,327L2032,217Z" fill="#f5bb3e" stroke="#f5bb3e" stroke-width="1.51"/><path d="M1821,327L1702,556L2025,515Z" fill="#f6c040" stroke="#f6c040" stroke-width="1.51"/><path d="M1672,-69L1580,63L1764,297Z" fill="#f1b43c" stroke="#f1b43c" stroke-width="1.51"/><path d="M1672,-69L1764,297L1942,-26Z" fill="#f1b43c" stroke="#f1b43c" stroke-width="1.51"/><path d="M1722,-213L1942,-26L1950,-172Z" fill="#efaf3b" stroke="#efaf3b" stroke-width="1.51"/><path d="M1716,1098L1792,1273L1964,1089Z" fill="#fac944" stroke="#fac944" stroke-width="1.51"/><path d="M1743,917L1716,1098L1964,1089Z" fill="#fac843" stroke="#fac843" stroke-width="1.51"/><path d="M1722,-213L1672,-69L1942,-26Z" fill="#efaf3b" stroke="#efaf3b" stroke-width="1.51"/><path d="M697,-358L880,-331L1251,-385Z" fill="#e9a136" stroke="#e9a136" stroke-width="1.51"/><path d="M1593,569L1570,903L1702,556Z" fill="#f7c240" stroke="#f7c240" stroke-width="1.51"/><path d="M1702,556L1570,903L1743,917Z" fill="#f8c441" stroke="#f8c441" stroke-width="1.51"/><path d="M1764,297L1602,405L1821,327Z" fill="#f5bb3f" stroke="#f5bb3f" stroke-width="1.51"/><path d="M1602,405L1702,556L1821,327Z" fill="#f5bd3f" stroke="#f5bd3f" stroke-width="1.51"/><path d="M1716,1098L1574,1286L1792,1273Z" fill="#fac943" stroke="#fac943" stroke-width="1.51"/><path d="M1570,903L1716,1098L1743,917Z" fill="#f9c642" stroke="#f9c642" stroke-width="1.51"/><path d="M1533,82L1602,405L1764,297Z" fill="#f3b83d" stroke="#f3b83d" stroke-width="1.51"/><path d="M1580,63L1533,82L1764,297Z" fill="#f2b53c" stroke="#f2b53c" stroke-width="1.51"/><path d="M1602,405L1593,569L1702,556Z" fill="#f6bf3f" stroke="#f6bf3f" stroke-width="1.51"/><path d="M1473,1179L1574,1286L1716,1098Z" fill="#fac843" stroke="#fac843" stroke-width="1.51"/><path d="M1582,-357L1672,-69L1722,-213Z" fill="#edab39" stroke="#edab39" stroke-width="1.51"/><path d="M1570,903L1473,1179L1716,1098Z" fill="#fac642" stroke="#fac642" stroke-width="1.51"/><path d="M1582,-357L1384,-83L1672,-69Z" fill="#edab3a" stroke="#edab3a" stroke-width="1.51"/><path d="M1352,679L1570,903L1593,569Z" fill="#f7c140" stroke="#f7c140" stroke-width="1.51"/><path d="M1533,82L1363,263L1602,405Z" fill="#f3b73d" stroke="#f3b73d" stroke-width="1.51"/><path d="M1384,-83L1580,63L1672,-69Z" fill="#efaf3b" stroke="#efaf3b" stroke-width="1.51"/><path d="M1411,1158L1473,1179L1570,903Z" fill="#f9c542" stroke="#f9c542" stroke-width="1.51"/><path d="M1384,-83L1533,82L1580,63Z" fill="#f0b03b" stroke="#f0b03b" stroke-width="1.51"/><path d="M1289,369L1352,679L1593,569Z" fill="#f6be3f" stroke="#f6be3f" stroke-width="1.51"/><path d="M1289,369L1593,569L1602,405Z" fill="#f5bc3e" stroke="#f5bc3e" stroke-width="1.51"/><path d="M1363,263L1289,369L1602,405Z" fill="#f3b83e" stroke="#f3b83e" stroke-width="1.51"/><path d="M1251,-385L1384,-83L1582,-357Z" fill="#eba738" stroke="#eba738" stroke-width="1.51"/><path d="M1231,923L1411,1158L1570,903Z" fill="#f8c441" stroke="#f8c441" stroke-width="1.51"/><path d="M1473,1179L1223,1400L1574,1286Z" fill="#fac843" stroke="#fac843" stroke-width="1.51"/><path d="M1352,679L1231,923L1570,903Z" fill="#f7c241" stroke="#f7c241" stroke-width="1.51"/><path d="M1411,1158L1223,1400L1473,1179Z" fill="#fac743" stroke="#fac743" stroke-width="1.51"/><path d="M1384,-83L1363,263L1533,82Z" fill="#f0b13b" stroke="#f0b13b" stroke-width="1.51"/><path d="M1251,-385L1063,-215L1384,-83Z" fill="#eca838" stroke="#eca838" stroke-width="1.51"/><path d="M1060,0L1363,263L1384,-83Z" fill="#efaf3b" stroke="#efaf3b" stroke-width="1.51"/><path d="M1231,923L1116,1298L1411,1158Z" fill="#f8c442" stroke="#f8c442" stroke-width="1.51"/><path d="M1116,1298L1223,1400L1411,1158Z" fill="#f9c642" stroke="#f9c642" stroke-width="1.51"/><path d="M1289,369L1005,385L1352,679Z" fill="#f4bb3e" stroke="#f4bb3e" stroke-width="1.51"/><path d="M1063,-215L1060,0L1384,-83Z" fill="#edaa39" stroke="#edaa39" stroke-width="1.51"/><path d="M988,1157L1116,1298L1231,923Z" fill="#f8c341" stroke="#f8c341" stroke-width="1.51"/><path d="M1005,385L977,732L1352,679Z" fill="#f5bd3f" stroke="#f5bd3f" stroke-width="1.51"/><path d="M976,297L1289,369L1363,263Z" fill="#f2b53d" stroke="#f2b53d" stroke-width="1.51"/><path d="M1060,0L976,297L1363,263Z" fill="#f0b13b" stroke="#f0b13b" stroke-width="1.51"/><path d="M977,732L1231,923L1352,679Z" fill="#f7bf3f" stroke="#f7bf3f" stroke-width="1.51"/><path d="M977,732L1075,923L1231,923Z" fill="#f6bf40" stroke="#f6bf40" stroke-width="1.51"/><path d="M1075,923L988,1157L1231,923Z" fill="#f7c140" stroke="#f7c140" stroke-width="1.51"/><path d="M976,297L1005,385L1289,369Z" fill="#f2b63d" stroke="#f2b63d" stroke-width="1.51"/><path d="M880,-331L1063,-215L1251,-385Z" fill="#eaa437" stroke="#eaa437" stroke-width="1.51"/><path d="M1116,1298L943,1459L1223,1400Z" fill="#f9c642" stroke="#f9c642" stroke-width="1.51"/><path d="M921,709L977,732L1005,385Z" fill="#f5bb3e" stroke="#f5bb3e" stroke-width="1.51"/><path d="M780,113L976,297L1060,0Z" fill="#efae3a" stroke="#efae3a" stroke-width="1.51"/><path d="M856,-81L1060,0L1063,-215Z" fill="#eca938" stroke="#eca938" stroke-width="1.51"/><path d="M940,954L988,1157L1075,923Z" fill="#f7c140" stroke="#f7c140" stroke-width="1.51"/><path d="M988,1157L922,1230L1116,1298Z" fill="#f8c341" stroke="#f8c341" stroke-width="1.51"/><path d="M922,1230L943,1459L1116,1298Z" fill="#f8c542" stroke="#f8c542" stroke-width="1.51"/><path d="M-29,1307L-245,1396L593,1369Z" fill="#f2b53d" stroke="#f2b53d" stroke-width="1.51"/><path d="M775,448L921,709L1005,385Z" fill="#f3b93e" stroke="#f3b93e" stroke-width="1.51"/><path d="M977,732L940,954L1075,923Z" fill="#f6bf3f" stroke="#f6bf3f" stroke-width="1.51"/><path d="M856,-81L780,113L1060,0Z" fill="#edaa39" stroke="#edaa39" stroke-width="1.51"/><path d="M880,-331L856,-81L1063,-215Z" fill="#eba537" stroke="#eba537" stroke-width="1.51"/><path d="M921,709L940,954L977,732Z" fill="#f6bd3f" stroke="#f6bd3f" stroke-width="1.51"/><path d="M976,297L775,448L1005,385Z" fill="#f2b43c" stroke="#f2b43c" stroke-width="1.51"/><path d="M940,954L922,1230L988,1157Z" fill="#f7c140" stroke="#f7c140" stroke-width="1.51"/><path d="M544,1116L922,1230L940,954Z" fill="#f6be3f" stroke="#f6be3f" stroke-width="1.51"/><path d="M921,709L660,854L940,954Z" fill="#f5bc3f" stroke="#f5bc3f" stroke-width="1.51"/><path d="M780,113L775,448L976,297Z" fill="#f0b13b" stroke="#f0b13b" stroke-width="1.51"/><path d="M660,854L544,1116L940,954Z" fill="#f5bb3e" stroke="#f5bb3e" stroke-width="1.51"/><path d="M922,1230L593,1369L943,1459Z" fill="#f8c241" stroke="#f8c241" stroke-width="1.51"/><path d="M201,-382L448,-299L697,-358Z" fill="#e59833" stroke="#e59833" stroke-width="1.51"/><path d="M697,-358L856,-81L880,-331Z" fill="#e9a236" stroke="#e9a236" stroke-width="1.51"/><path d="M775,448L533,725L921,709Z" fill="#f3b73d" stroke="#f3b73d" stroke-width="1.51"/><path d="M533,725L660,854L921,709Z" fill="#f3b83d" stroke="#f3b83d" stroke-width="1.51"/><path d="M544,1116L593,1369L922,1230Z" fill="#f6be40" stroke="#f6be40" stroke-width="1.51"/><path d="M122,1266L-29,1307L593,1369Z" fill="#f2b73d" stroke="#f2b73d" stroke-width="1.51"/><path d="M670,99L775,448L780,113Z" fill="#eead39" stroke="#eead39" stroke-width="1.51"/><path d="M670,99L531,401L775,448Z" fill="#eeae3a" stroke="#eeae3a" stroke-width="1.51"/><path d="M697,-358L521,-9L856,-81Z" fill="#eaa236" stroke="#eaa236" stroke-width="1.51"/><path d="M521,-9L670,99L856,-81Z" fill="#eba638" stroke="#eba638" stroke-width="1.51"/><path d="M670,99L780,113L856,-81Z" fill="#eda938" stroke="#eda938" stroke-width="1.51"/><path d="M448,-299L521,-9L697,-358Z" fill="#e79e35" stroke="#e79e35" stroke-width="1.51"/><path d="M531,401L533,725L775,448Z" fill="#f1b33c" stroke="#f1b33c" stroke-width="1.51"/><path d="M531,401L438,666L533,725Z" fill="#f1b23c" stroke="#f1b23c" stroke-width="1.51"/><path d="M456,1276L122,1266L593,1369Z" fill="#f4b93e" stroke="#f4b93e" stroke-width="1.51"/><path d="M544,1116L456,1276L593,1369Z" fill="#f5bb3f" stroke="#f5bb3f" stroke-width="1.51"/><path d="M414,279L531,401L670,99Z" fill="#edab39" stroke="#edab39" stroke-width="1.51"/><path d="M454,423L438,666L531,401Z" fill="#f0b03a" stroke="#f0b03a" stroke-width="1.51"/><path d="M376,1036L544,1116L660,854Z" fill="#f3b83d" stroke="#f3b83d" stroke-width="1.51"/><path d="M521,-9L414,279L670,99Z" fill="#eca738" stroke="#eca738" stroke-width="1.51"/><path d="M533,725L376,1036L660,854Z" fill="#f3b63d" stroke="#f3b63d" stroke-width="1.51"/><path d="M322,31L414,279L521,-9Z" fill="#eaa437" stroke="#eaa437" stroke-width="1.51"/><path d="M261,887L376,1036L533,725Z" fill="#f2b43c" stroke="#f2b43c" stroke-width="1.51"/><path d="M448,-299L322,31L521,-9Z" fill="#e89f35" stroke="#e89f35" stroke-width="1.51"/><path d="M414,279L454,423L531,401Z" fill="#eeac39" stroke="#eeac39" stroke-width="1.51"/><path d="M438,666L261,887L533,725Z" fill="#f1b33c" stroke="#f1b33c" stroke-width="1.51"/><path d="M376,1036L456,1276L544,1116Z" fill="#f3b93e" stroke="#f3b93e" stroke-width="1.51"/><path d="M201,-382L71,-58L322,31Z" fill="#e59a33" stroke="#e59a33" stroke-width="1.51"/><path d="M322,31L172,153L414,279Z" fill="#eaa436" stroke="#eaa436" stroke-width="1.51"/><path d="M201,-382L322,31L448,-299Z" fill="#e59a34" stroke="#e59a34" stroke-width="1.51"/><path d="M112,439L438,666L454,423Z" fill="#efad3a" stroke="#efad3a" stroke-width="1.51"/><path d="M414,279L112,439L454,423Z" fill="#edaa39" stroke="#edaa39" stroke-width="1.51"/><path d="M376,1036L171,1061L456,1276Z" fill="#f2b63d" stroke="#f2b63d" stroke-width="1.51"/><path d="M171,1061L122,1266L456,1276Z" fill="#f2b63d" stroke="#f2b63d" stroke-width="1.51"/><path d="M112,439L116,736L438,666Z" fill="#efad3a" stroke="#efad3a" stroke-width="1.51"/><path d="M116,736L261,887L438,666Z" fill="#f0b03b" stroke="#f0b03b" stroke-width="1.51"/><path d="M-293,-303L-167,-279L201,-382Z" fill="#e08f30" stroke="#e08f30" stroke-width="1.51"/><path d="M172,153L112,439L414,279Z" fill="#eba538" stroke="#eba538" stroke-width="1.51"/><path d="M261,887L171,1061L376,1036Z" fill="#f1b33c" stroke="#f1b33c" stroke-width="1.51"/><path d="M71,-58L172,153L322,31Z" fill="#e89e35" stroke="#e89e35" stroke-width="1.51"/><path d="M126,999L171,1061L261,887Z" fill="#f0b13b" stroke="#f0b13b" stroke-width="1.51"/><path d="M116,736L126,999L261,887Z" fill="#f0b03b" stroke="#f0b03b" stroke-width="1.51"/><path d="M-3,1098L122,1266L171,1061Z" fill="#f0b23c" stroke="#f0b23c" stroke-width="1.51"/><path d="M71,-58L-7,53L172,153Z" fill="#e79c34" stroke="#e79c34" stroke-width="1.51"/><path d="M-62,341L112,439L172,153Z" fill="#eaa337" stroke="#eaa337" stroke-width="1.51"/><path d="M-167,-279L71,-58L201,-382Z" fill="#e39432" stroke="#e39432" stroke-width="1.51"/><path d="M112,439L-179,634L116,736Z" fill="#eda939" stroke="#eda939" stroke-width="1.51"/><path d="M116,736L-157,894L126,999Z" fill="#eead3a" stroke="#eead3a" stroke-width="1.51"/><path d="M126,999L-3,1098L171,1061Z" fill="#f0b13b" stroke="#f0b13b" stroke-width="1.51"/><path d="M-7,53L-62,341L172,153Z" fill="#e89f35" stroke="#e89f35" stroke-width="1.51"/><path d="M-129,103L-62,341L-7,53Z" fill="#e79d34" stroke="#e79d34" stroke-width="1.51"/><path d="M-62,341L-179,634L112,439Z" fill="#eba637" stroke="#eba637" stroke-width="1.51"/><path d="M-3,1098L-29,1307L122,1266Z" fill="#f0b23c" stroke="#f0b23c" stroke-width="1.51"/><path d="M-157,894L-3,1098L126,999Z" fill="#efae3a" stroke="#efae3a" stroke-width="1.51"/><path d="M-179,634L-157,894L116,736Z" fill="#edaa39" stroke="#edaa39" stroke-width="1.51"/><path d="M-232,-78L-7,53L71,-58Z" fill="#e59833" stroke="#e59833" stroke-width="1.51"/><path d="M-167,-279L-232,-78L71,-58Z" fill="#e39432" stroke="#e39432" stroke-width="1.51"/><path d="M-366,595L-443,155L-245,1396Z" fill="#eaa537" stroke="#eaa537" stroke-width="1.51"/><path d="M-179,634L-237,816L-157,894Z" fill="#eca838" stroke="#eca838" stroke-width="1.51"/><path d="M-232,-78L-129,103L-7,53Z" fill="#e59833" stroke="#e59833" stroke-width="1.51"/><path d="M-225,1058L-29,1307L-3,1098Z" fill="#efae3b" stroke="#efae3b" stroke-width="1.51"/><path d="M-157,894L-225,1058L-3,1098Z" fill="#eeac3a" stroke="#eeac3a" stroke-width="1.51"/><path d="M-358,356L-179,634L-62,341Z" fill="#e9a236" stroke="#e9a236" stroke-width="1.51"/><path d="M-225,1058L-245,1396L-29,1307Z" fill="#efae3b" stroke="#efae3b" stroke-width="1.51"/><path d="M-129,103L-358,356L-62,341Z" fill="#e79e35" stroke="#e79e35" stroke-width="1.51"/><path d="M-358,356L-366,595L-179,634Z" fill="#eaa337" stroke="#eaa337" stroke-width="1.51"/><path d="M-232,-78L-443,155L-129,103Z" fill="#e49633" stroke="#e49633" stroke-width="1.51"/><path d="M-443,155L-358,356L-129,103Z" fill="#e59934" stroke="#e59934" stroke-width="1.51"/><path d="M-293,-303L-232,-78L-167,-279Z" fill="#e18f30" stroke="#e18f30" stroke-width="1.51"/><path d="M-237,816L-225,1058L-157,894Z" fill="#eca939" stroke="#eca939" stroke-width="1.51"/><path d="M-366,595L-237,816L-179,634Z" fill="#eba537" stroke="#eba537" stroke-width="1.51"/><path d="M-237,816L-366,595L-225,1058Z" fill="#eba738" stroke="#eba738" stroke-width="1.51"/><path d="M-366,595L-245,1396L-225,1058Z" fill="#ecaa39" stroke="#ecaa39" stroke-width="1.51"/><path d="M-293,-303L-443,155L-232,-78Z" fill="#e29231" stroke="#e29231" stroke-width="1.51"/><path d="M-443,155L-366,595L-358,356Z" fill="#e79d35" stroke="#e79d35" stroke-width="1.51"/></svg>